<svg class="c0361" data-name="logo" xmlns="http://www.w3.org/2000/svg" viewBox="0 0 1255.81 348.9"><path d="M235.21,232.76h-163q1.59,29,19.87,44.41T146,292.57a110.36,110.36,0,0,0,43.7-9q21.16-9,33.43-19.34h7.91v63.53a245,245,0,0,1-45.49,15.61,214.24,214.24,0,0,1-47.26,4.83q-66.84,0-102.44-33.41T.26,219.57q0-61.11,33.72-96.84T126.43,87q54.18,0,81.48,30.45t27.3,87.61Zm-70.8-46.39q-.6-24.84-11.07-37.37T120.7,136.47q-20.57,0-33.82,11.87T72,186.38Z" transform="translate(-0.26 0.5)"></path><path d="M489.24,341.59H417.85V315.86q-18.38,16.71-34.38,24.63t-36.93,7.92q-40.48,0-64.79-34.74T257.46,220q0-31.44,8.2-55.73t22.42-41.66A93.26,93.26,0,0,1,320.66,97q19.17-9.12,38.32-9.12,20,0,32.69,4.72a205.68,205.68,0,0,1,26.18,12V-.5h71.39Zm-71.39-68V152.31a64.58,64.58,0,0,0-15.78-5.06,83.51,83.51,0,0,0-15.2-1.54q-28,0-42,19.49t-14,54.05q0,36.34,11.25,52.73t36.11,16.41a58.42,58.42,0,0,0,20.52-4.07A69.86,69.86,0,0,0,417.85,273.63Z" transform="translate(-0.26 0.5)"></path><path d="M601.49,59.52H526.15V-.5h75.34Zm-2,282.06H528.12V94.7h71.39Z" transform="translate(-0.26 0.5)"></path><path d="M873.94,341.59H791.07L728.82,234.23,709.6,260.55v81H638.21V-.5H709.6v204L786.08,94.7h82.13L788.41,201.1Z" transform="translate(-0.26 0.5)"></path><path d="M1084.11,232.76h-163q1.58,29,19.87,44.41t53.89,15.4a110.37,110.37,0,0,0,43.71-9q21.16-9,33.43-19.34H1080v63.53a245,245,0,0,1-45.49,15.61,214.23,214.23,0,0,1-47.26,4.83q-66.84,0-102.44-33.41t-35.6-95.2q0-61.11,33.72-96.84T975.34,87q54.18,0,81.48,30.45t27.3,87.61Zm-70.8-46.39q-.6-24.84-11.07-37.37T969.6,136.47q-20.57,0-33.82,11.87t-14.84,38Z" transform="translate(-0.26 0.5)"></path><path d="M1256.07,339.41a183.15,183.15,0,0,1-24.33,5.15,223.36,223.36,0,0,1-31.44,1.87q-41.53,0-61.8-18.69t-20.27-64V148.34H1089V94.7h29.27V24.13h71.39V94.7h66.45v53.65h-66.45V236q0,13,.2,22.67a51.14,51.14,0,0,0,3.16,17.4,23.67,23.67,0,0,0,9.75,12.22q7,4.51,20.41,4.51,5.53,0,14.49-2.64t12.52-4.84h5.91Z" transform="translate(-0.26 0.5)"></path></svg>