<?xml version="1.0" encoding="UTF-8"?>
<svg class="octicon octicon-person" width="140.47" height="142.47" aria-hidden="true" version="1.1" viewBox="0 0 17.559 17.809" xmlns="http://www.w3.org/2000/svg" xmlns:cc="http://creativecommons.org/ns#" xmlns:dc="http://purl.org/dc/elements/1.1/" xmlns:rdf="http://www.w3.org/1999/02/22-rdf-syntax-ns#">
 <metadata>
  <rdf:RDF>
   <cc:Work rdf:about="">
    <dc:format>image/svg+xml</dc:format>
    <dc:type rdf:resource="http://purl.org/dc/dcmitype/StillImage"/>
    <dc:title/>
   </cc:Work>
  </rdf:RDF>
 </metadata>
 <defs>
  <clipPath id="clipPath4540">
   <path d="m16.605 16.521a1.259 1.259 0 0 1-1.259 1.259h-12.616a1.2615 1.2615 0 0 1-1.2628-1.2628v-1.2602c0-3.3215 5.046-5.046 5.046-5.046s0.28888-0.51595 0-1.2615c-1.0609-0.78213-1.1909-2.0058-1.2615-5.046 0.21824-3.044 2.3552-3.7845 3.7845-3.7845 1.4293 0 3.5663 0.73924 3.7845 3.7845-0.07064 3.0402-0.20058 4.2639-1.2615 5.046-0.28888 0.74429 0 1.2615 0 1.2615s5.046 1.7245 5.046 5.046z" fill-rule="evenodd" stroke-width="1.2615"/>
  </clipPath>
 </defs>
 <g stroke-width=".10444">
  <circle cx="8.7797" cy="8.7797" r="8.7797" fill="#fff"/>
  <circle transform="translate(-.33898 1.7415)" cx="9.1186" cy="7.2881" r="8.7797" clip-path="url(#clipPath4540)"/>
 </g>
</svg>
